<svg xmlns="http://www.w3.org/2000/svg" width="1100" height="420" viewBox="0 0 1100 420"><defs><marker id="arr" markerWidth="10" markerHeight="10" refX="8" refY="4" orient="auto"><path d="M0,0 L0,8 L9,4 z" fill="#385f8c"/></marker><style>.title{font:700 27px Arial;fill:#0e1b38} .sub{font:14px Arial;fill:#63738a} .label{font:700 15px Arial;fill:#172440} .small{font:12px Arial;fill:#65758b}</style></defs><rect width="100%" height="100%" fill="#fff"/><text x="550.0" y="34" text-anchor="middle" class="title">Current Project Models</text><text x="550.0" y="60" text-anchor="middle" class="sub">Pydantic for contracts; TypedDict for graph state</text><path d="M260,158 L300,158" stroke="#385f8c" stroke-width="3" fill="none" marker-end="url(#arr)"/><path d="M520,158 L560,158" stroke="#385f8c" stroke-width="3" fill="none" marker-end="url(#arr)"/><path d="M780,158 L820,158" stroke="#385f8c" stroke-width="3" fill="none" marker-end="url(#arr)"/><rect x="40" y="120" width="220" height="76" rx="15" fill="#2d8a57" fill-opacity=".05" stroke="#2d8a57" stroke-width="1.8"/><circle cx="78" cy="158.0" r="24" fill="#2d8a57" fill-opacity=".12"/><rect x="60" y="140.0" width="36" height="36" rx="6" stroke="#2d8a57" stroke-width="3" fill="none" stroke-linecap="round" stroke-linejoin="round"/><path d="M68,150.0 h20 M68,158.0 h20 M68,166.0 h13" stroke="#2d8a57" stroke-width="3" fill="none" stroke-linecap="round" stroke-linejoin="round"/><text x="112" y="151" class="label">ReservationQuery</text><text x="112" y="173" class="small">Business filters</text><rect x="300" y="120" width="220" height="76" rx="15" fill="#7a42bd" fill-opacity=".05" stroke="#7a42bd" stroke-width="1.8"/><circle cx="338" cy="158.0" r="24" fill="#7a42bd" fill-opacity=".12"/><rect x="320" y="140.0" width="36" height="36" rx="6" stroke="#7a42bd" stroke-width="3" fill="none" stroke-linecap="round" stroke-linejoin="round"/><path d="M328,150.0 h20 M328,158.0 h20 M328,166.0 h13" stroke="#7a42bd" stroke-width="3" fill="none" stroke-linecap="round" stroke-linejoin="round"/><text x="372" y="151" class="label">ExtractedRequest</text><text x="372" y="173" class="small">Intent + metric + query</text><rect x="560" y="120" width="220" height="76" rx="15" fill="#d36f1d" fill-opacity=".05" stroke="#d36f1d" stroke-width="1.8"/><circle cx="598" cy="158.0" r="24" fill="#d36f1d" fill-opacity=".12"/><rect x="580" y="140.0" width="36" height="36" rx="6" stroke="#d36f1d" stroke-width="3" fill="none" stroke-linecap="round" stroke-linejoin="round"/><path d="M588,150.0 h20 M588,158.0 h20 M588,166.0 h13" stroke="#d36f1d" stroke-width="3" fill="none" stroke-linecap="round" stroke-linejoin="round"/><text x="632" y="151" class="label">Campaign</text><text x="632" y="173" class="small">Resolved entity</text><rect x="820" y="120" width="220" height="76" rx="15" fill="#6b3eb3" fill-opacity=".05" stroke="#6b3eb3" stroke-width="1.8"/><circle cx="858" cy="158.0" r="24" fill="#6b3eb3" fill-opacity=".12"/><circle cx="858" cy="143.0" r="6" fill="#6b3eb3"/><circle cx="840" cy="172.0" r="6" fill="#6b3eb3"/><circle cx="876" cy="172.0" r="6" fill="#6b3eb3"/><path d="M858,149.0 L844,167.0 M858,149.0 L872,167.0 M846,172.0 H870" stroke="#6b3eb3" stroke-width="3" fill="none" stroke-linecap="round" stroke-linejoin="round"/><text x="892" y="151" class="label">AgentState</text><text x="892" y="173" class="small">TypedDict state</text></svg>