<?xml version="1.0" encoding="utf-8" ?>
<svg baseProfile="full" height="1000" version="1.1" width="1600" xmlns="http://www.w3.org/2000/svg" xmlns:ev="http://www.w3.org/2001/xml-events" xmlns:xlink="http://www.w3.org/1999/xlink"><defs><marker id="id35" markerHeight="10" markerWidth="10" orient="auto" refX="10" refY="5"><path d="M0,0 L10,5 L0,10 z" fill="#123B66" /></marker><marker id="id36" markerHeight="10" markerWidth="10" orient="auto" refX="10" refY="5"><path d="M0,0 L10,5 L0,10 z" fill="#123B66" /></marker><marker id="id37" markerHeight="10" markerWidth="10" orient="auto" refX="10" refY="5"><path d="M0,0 L10,5 L0,10 z" fill="#16805B" /></marker><marker id="id38" markerHeight="10" markerWidth="10" orient="auto" refX="10" refY="5"><path d="M0,0 L10,5 L0,10 z" fill="#1769AA" /></marker><marker id="id39" markerHeight="10" markerWidth="10" orient="auto" refX="10" refY="5"><path d="M0,0 L10,5 L0,10 z" fill="#7137B9" /></marker></defs><rect fill="#FBFCFE" height="1000" width="1600" x="0" y="0" /><text fill="#102A52" font-family="Arial, Helvetica, sans-serif" font-size="40" font-weight="bold" text-anchor="middle" x="800.0" y="54">Part 4 — Serving and Configurable Data Backends</text><text fill="#516B8B" font-family="Arial, Helvetica, sans-serif" font-size="21" font-weight="normal" text-anchor="middle" x="800.0" y="91">FastAPI and Docker serve the agent; the physical SQL backend is selected by configuration</text><rect fill="#EEF6FC" height="250" opacity="0.98" rx="22" ry="22" stroke="#1769AA" stroke-width="2" width="1520" x="40" y="120" /><circle cx="74" cy="154" fill="#1769AA" r="20" /><text fill="#FFFFFF" font-family="Arial, Helvetica, sans-serif" font-size="22" font-weight="bold" text-anchor="middle" x="74" y="162">1</text><text fill="#1769AA" font-family="Arial, Helvetica, sans-serif" font-size="27" font-weight="bold" text-anchor="start" x="110" y="162">Serving</text><rect fill="#FFFFFF" height="110" rx="18" stroke="#1769AA" stroke-width="2" width="300" x="160" y="190" /><circle cx="208" cy="245.0" fill="#1769AA" r="34" /><circle cx="208" cy="236.0" fill="#FFFFFF" r="9" /><path d="M 190,263.0 Q 208,241.0 226,263.0 Z" fill="#FFFFFF" /><text fill="#243447" font-family="Arial, Helvetica, sans-serif" font-size="22" font-weight="bold" text-anchor="start" x="253" y="242.0">Client / Chat</text><text fill="#64748B" font-family="Arial, Helvetica, sans-serif" font-size="15" font-weight="normal" text-anchor="start" x="253" y="269.0">HTTP request</text><rect fill="#FFFFFF" height="110" rx="18" stroke="#1769AA" stroke-width="2" width="300" x="650" y="190" /><circle cx="698" cy="245.0" fill="#1769AA" r="34" /><text fill="#FFFFFF" font-family="Arial, Helvetica, sans-serif" font-size="18" font-weight="bold" text-anchor="middle" x="698" y="252.0">API</text><text fill="#243447" font-family="Arial, Helvetica, sans-serif" font-size="22" font-weight="bold" text-anchor="start" x="743" y="242.0">FastAPI</text><text fill="#64748B" font-family="Arial, Helvetica, sans-serif" font-size="15" font-weight="normal" text-anchor="start" x="743" y="269.0">POST /ask</text><rect fill="#FFFFFF" height="110" rx="18" stroke="#1769AA" stroke-width="2" width="300" x="1140" y="190" /><circle cx="1188" cy="245.0" fill="#1769AA" r="34" /><text fill="#FFFFFF" font-family="Arial, Helvetica, sans-serif" font-size="32" font-weight="bold" text-anchor="middle" x="1188" y="255.0">▦</text><text fill="#243447" font-family="Arial, Helvetica, sans-serif" font-size="22" font-weight="bold" text-anchor="start" x="1233" y="242.0">Docker</text><text fill="#64748B" font-family="Arial, Helvetica, sans-serif" font-size="15" font-weight="normal" text-anchor="start" x="1233" y="269.0">Package the service</text><line fill="none" marker-end="url(#id35)" stroke="#123B66" stroke-width="4" x1="460" x2="650" y1="245" y2="245" /><line fill="none" marker-end="url(#id36)" stroke="#123B66" stroke-width="4" x1="950" x2="1140" y1="245" y2="245" /><rect fill="#F5F0FB" height="455" opacity="0.98" rx="22" ry="22" stroke="#7137B9" stroke-width="2" width="1520" x="40" y="405" /><circle cx="74" cy="439" fill="#7137B9" r="20" /><text fill="#FFFFFF" font-family="Arial, Helvetica, sans-serif" font-size="22" font-weight="bold" text-anchor="middle" x="74" y="447">2</text><text fill="#7137B9" font-family="Arial, Helvetica, sans-serif" font-size="27" font-weight="bold" text-anchor="start" x="110" y="447">Backend Adapter</text><rect fill="#FFFFFF" height="105" rx="18" stroke="#7137B9" stroke-width="2" width="380" x="610" y="455" /><circle cx="658" cy="507.5" fill="#7137B9" r="34" /><ellipse cx="658" cy="494.5" fill="none" rx="18" ry="7" stroke="#FFFFFF" stroke-width="3" /><rect fill="none" height="28" stroke="#FFFFFF" stroke-width="3" width="36" x="640" y="494.5" /><ellipse cx="658" cy="522.5" fill="none" rx="18" ry="7" stroke="#FFFFFF" stroke-width="3" /><text fill="#243447" font-family="Arial, Helvetica, sans-serif" font-size="22" font-weight="bold" text-anchor="start" x="703" y="504.5">QueryBackend</text><text fill="#64748B" font-family="Arial, Helvetica, sans-serif" font-size="15" font-weight="normal" text-anchor="start" x="703" y="531.5">One execute(sql) contract</text><rect fill="#FFFFFF" height="115" rx="18" stroke="#16805B" stroke-width="2" width="330" x="115" y="650" /><circle cx="163" cy="707.5" fill="#16805B" r="34" /><ellipse cx="163" cy="694.5" fill="none" rx="18" ry="7" stroke="#FFFFFF" stroke-width="3" /><rect fill="none" height="28" stroke="#FFFFFF" stroke-width="3" width="36" x="145" y="694.5" /><ellipse cx="163" cy="722.5" fill="none" rx="18" ry="7" stroke="#FFFFFF" stroke-width="3" /><text fill="#243447" font-family="Arial, Helvetica, sans-serif" font-size="22" font-weight="bold" text-anchor="start" x="208" y="704.5">SQLite — Default</text><text fill="#64748B" font-family="Arial, Helvetica, sans-serif" font-size="15" font-weight="normal" text-anchor="start" x="208" y="731.5">Local runnable Data Mart</text><rect fill="#FFFFFF" height="115" rx="18" stroke="#1769AA" stroke-width="2" width="330" x="635" y="650" /><circle cx="683" cy="707.5" fill="#1769AA" r="34" /><rect fill="none" height="10" rx="3" stroke="#FFFFFF" stroke-width="2" width="42" x="662" y="688.5" /><circle cx="696" cy="693.5" fill="#FFFFFF" r="2.5" /><rect fill="none" height="10" rx="3" stroke="#FFFFFF" stroke-width="2" width="42" x="662" y="702.5" /><circle cx="696" cy="707.5" fill="#FFFFFF" r="2.5" /><rect fill="none" height="10" rx="3" stroke="#FFFFFF" stroke-width="2" width="42" x="662" y="716.5" /><circle cx="696" cy="721.5" fill="#FFFFFF" r="2.5" /><text fill="#243447" font-family="Arial, Helvetica, sans-serif" font-size="22" font-weight="bold" text-anchor="start" x="728" y="704.5">Athena — Optional</text><text fill="#64748B" font-family="Arial, Helvetica, sans-serif" font-size="15" font-weight="normal" text-anchor="start" x="728" y="731.5">AWS SDK + IAM</text><rect fill="#FFFFFF" height="115" rx="18" stroke="#7137B9" stroke-width="2" width="330" x="1155" y="650" /><circle cx="1203" cy="707.5" fill="#7137B9" r="34" /><rect fill="none" height="10" rx="3" stroke="#FFFFFF" stroke-width="2" width="42" x="1182" y="688.5" /><circle cx="1216" cy="693.5" fill="#FFFFFF" r="2.5" /><rect fill="none" height="10" rx="3" stroke="#FFFFFF" stroke-width="2" width="42" x="1182" y="702.5" /><circle cx="1216" cy="707.5" fill="#FFFFFF" r="2.5" /><rect fill="none" height="10" rx="3" stroke="#FFFFFF" stroke-width="2" width="42" x="1182" y="716.5" /><circle cx="1216" cy="721.5" fill="#FFFFFF" r="2.5" /><text fill="#243447" font-family="Arial, Helvetica, sans-serif" font-size="22" font-weight="bold" text-anchor="start" x="1248" y="704.5">SQL Gateway — Optional</text><text fill="#64748B" font-family="Arial, Helvetica, sans-serif" font-size="15" font-weight="normal" text-anchor="start" x="1248" y="731.5">user_id + token</text><polyline fill="none" marker-end="url(#id37)" points="800,560 800,610 280,610 280,650" stroke="#16805B" stroke-width="4" /><line fill="none" marker-end="url(#id38)" stroke="#1769AA" stroke-width="4" x1="800" x2="800" y1="560" y2="650" /><polyline fill="none" marker-end="url(#id39)" points="800,560 800,610 1320,610 1320,650" stroke="#7137B9" stroke-width="4" /><text fill="#16805B" font-family="Arial, Helvetica, sans-serif" font-size="16" font-weight="bold" text-anchor="middle" x="280" y="810">config/default.env</text><text fill="#1769AA" font-family="Arial, Helvetica, sans-serif" font-size="16" font-weight="bold" text-anchor="middle" x="800" y="810">config/aws.env</text><text fill="#7137B9" font-family="Arial, Helvetica, sans-serif" font-size="16" font-weight="bold" text-anchor="middle" x="1320" y="810">config/internal-sg.env / internal-eu.env</text><rect fill="#EEF6FC" height="70" opacity="0.98" rx="22" ry="22" stroke="#123B66" stroke-width="2" width="1520" x="40" y="890" /><circle cx="74" cy="924" fill="#123B66" r="20" /><text fill="#FFFFFF" font-family="Arial, Helvetica, sans-serif" font-size="22" font-weight="bold" text-anchor="middle" x="74" y="932">3</text><text fill="#123B66" font-family="Arial, Helvetica, sans-serif" font-size="27" font-weight="bold" text-anchor="start" x="110" y="932">Key Principle</text><text fill="#163B65" font-family="Arial, Helvetica, sans-serif" font-size="23" font-weight="bold" text-anchor="middle" x="800.0" y="935">Changing backend configuration does not change LangGraph, RAG, or analytics metric logic.</text></svg>