<svg xmlns="http://www.w3.org/2000/svg" width="1100" height="420" viewBox="0 0 1100 420"><defs><marker id="arr" markerWidth="10" markerHeight="10" refX="8" refY="4" orient="auto"><path d="M0,0 L0,8 L9,4 z" fill="#385f8c"/></marker><style>.title{font:700 27px Arial;fill:#0e1b38} .sub{font:14px Arial;fill:#63738a} .label{font:700 15px Arial;fill:#172440} .small{font:12px Arial;fill:#65758b}</style></defs><rect width="100%" height="100%" fill="#fff"/><text x="550.0" y="34" text-anchor="middle" class="title">LangChain Mental Model</text><text x="550.0" y="60" text-anchor="middle" class="sub">Model integration, structured output, chains, tools and agent patterns</text><path d="M265,158 L310,158" stroke="#385f8c" stroke-width="3" fill="none" marker-end="url(#arr)"/><path d="M530,158 L575,158" stroke="#385f8c" stroke-width="3" fill="none" marker-end="url(#arr)"/><path d="M785,158 L830,158" stroke="#385f8c" stroke-width="3" fill="none" marker-end="url(#arr)"/><path d="M680,196 L570,255" stroke="#385f8c" stroke-width="3" fill="none" marker-end="url(#arr)"/><rect x="55" y="120" width="210" height="76" rx="15" fill="#2d8a57" fill-opacity=".05" stroke="#2d8a57" stroke-width="1.8"/><circle cx="93" cy="158.0" r="24" fill="#2d8a57" fill-opacity=".12"/><path d="M71,158.0 h14 M101,158.0 h14" stroke="#2d8a57" stroke-width="3" fill="none" stroke-linecap="round" stroke-linejoin="round"/><rect x="84" y="143.0" width="18" height="30" rx="7" stroke="#2d8a57" stroke-width="3" fill="none" stroke-linecap="round" stroke-linejoin="round"/><rect x="58" y="143.0" width="18" height="30" rx="7" stroke="#2d8a57" stroke-width="3" fill="none" stroke-linecap="round" stroke-linejoin="round"/><rect x="110" y="143.0" width="18" height="30" rx="7" stroke="#2d8a57" stroke-width="3" fill="none" stroke-linecap="round" stroke-linejoin="round"/><text x="127" y="151" class="label">Model</text><text x="127" y="173" class="small">ChatOpenAI / LLM</text><rect x="310" y="120" width="220" height="76" rx="15" fill="#1f6fad" fill-opacity=".05" stroke="#1f6fad" stroke-width="1.8"/><circle cx="348" cy="158.0" r="24" fill="#1f6fad" fill-opacity=".12"/><rect x="330" y="140.0" width="36" height="36" rx="6" stroke="#1f6fad" stroke-width="3" fill="none" stroke-linecap="round" stroke-linejoin="round"/><path d="M338,150.0 h20 M338,158.0 h20 M338,166.0 h13" stroke="#1f6fad" stroke-width="3" fill="none" stroke-linecap="round" stroke-linejoin="round"/><text x="382" y="151" class="label">Structured Output</text><text x="382" y="173" class="small">Pydantic schema</text><rect x="575" y="120" width="210" height="76" rx="15" fill="#7a42bd" fill-opacity=".05" stroke="#7a42bd" stroke-width="1.8"/><circle cx="613" cy="158.0" r="24" fill="#7a42bd" fill-opacity=".12"/><path d="M591,158.0 h14 M621,158.0 h14" stroke="#7a42bd" stroke-width="3" fill="none" stroke-linecap="round" stroke-linejoin="round"/><rect x="604" y="143.0" width="18" height="30" rx="7" stroke="#7a42bd" stroke-width="3" fill="none" stroke-linecap="round" stroke-linejoin="round"/><rect x="578" y="143.0" width="18" height="30" rx="7" stroke="#7a42bd" stroke-width="3" fill="none" stroke-linecap="round" stroke-linejoin="round"/><rect x="630" y="143.0" width="18" height="30" rx="7" stroke="#7a42bd" stroke-width="3" fill="none" stroke-linecap="round" stroke-linejoin="round"/><text x="647" y="151" class="label">Runnable / Chain</text><text x="647" y="173" class="small">Compose steps</text><rect x="830" y="120" width="210" height="76" rx="15" fill="#d36f1d" fill-opacity=".05" stroke="#d36f1d" stroke-width="1.8"/><circle cx="868" cy="158.0" r="24" fill="#d36f1d" fill-opacity=".12"/><circle cx="859" cy="149.0" r="8" stroke="#d36f1d" stroke-width="3" fill="none" stroke-linecap="round" stroke-linejoin="round"/><path d="M865,155.0 l19,19 M876,166.0 l7,-7" stroke="#d36f1d" stroke-width="3" fill="none" stroke-linecap="round" stroke-linejoin="round"/><text x="902" y="151" class="label">Tools</text><text x="902" y="173" class="small">External functions</text><rect x="440" y="255" width="230" height="76" rx="15" fill="#6b3eb3" fill-opacity=".05" stroke="#6b3eb3" stroke-width="1.8"/><circle cx="478" cy="293.0" r="24" fill="#6b3eb3" fill-opacity=".12"/><circle cx="478" cy="278.0" r="6" fill="#6b3eb3"/><circle cx="460" cy="307.0" r="6" fill="#6b3eb3"/><circle cx="496" cy="307.0" r="6" fill="#6b3eb3"/><path d="M478,284.0 L464,302.0 M478,284.0 L492,302.0 M466,307.0 H490" stroke="#6b3eb3" stroke-width="3" fill="none" stroke-linecap="round" stroke-linejoin="round"/><text x="512" y="286" class="label">LangGraph</text><text x="512" y="308" class="small">Stateful orchestration</text><text x="550.0" y="400" text-anchor="middle" class="label">Current project uses ChatOpenAI structured output; LangGraph handles the workflow.</text></svg>